<svg width="12" height="11" viewBox="0 0 12 11" fill="none" xmlns="http://www.w3.org/2000/svg">
<path fill-rule="evenodd" clip-rule="evenodd" d="M9.55744 0.882773C9.97156 0.489251 10.6239 0.471075 11.0144 0.842175C11.4049 1.21328 11.3858 1.83312 10.9717 2.22665L7.41399 5.60736L10.899 8.919C11.3097 9.3093 11.3261 9.92653 10.9355 10.2976C10.545 10.6687 9.89548 10.6532 9.48476 10.2629L5.99978 6.95123L2.48825 10.2881C2.07413 10.6816 1.42184 10.6998 1.03131 10.3287C0.64079 9.9576 0.659917 9.33775 1.07404 8.94423L4.58556 5.60736L1.07093 2.26754C0.660205 1.87724 0.643831 1.26001 1.03435 0.888911C1.42488 0.517811 2.07442 0.533371 2.48514 0.923665L5.99978 4.26349L9.55744 0.882773Z" fill="#828282"/>
</svg>
