<svg width="14" height="14" viewBox="0 0 14 14" fill="none" xmlns="http://www.w3.org/2000/svg">
<path d="M3.23401 8.85582L2.50776 12.9946C2.44323 13.3611 2.78234 13.6525 3.10499 13.5367C3.12328 13.5301 3.14152 13.5223 3.15964 13.513C3.1597 13.513 3.15976 13.513 3.15982 13.5129L3.23401 8.85582ZM3.23401 8.85582L0.151387 5.91932M3.23401 8.85582L0.399012 5.08807M0.151387 5.91932C-0.136488 5.64457 0.0131369 5.14232 0.399012 5.08807M0.151387 5.91932L0.323821 5.73831L0.323937 5.73842M0.151387 5.91932L0.323993 5.73847L3.40645 8.67481L3.50339 8.76716L3.48025 8.89903L2.754 13.0378L2.75397 13.0379C2.71706 13.2476 2.91455 13.3567 3.04544 13.2906M0.399012 5.08807L4.68476 4.47907L0.399012 5.08807ZM0.323937 5.73842L3.04544 13.2906M0.323937 5.73842C0.175254 5.59643 0.271221 5.3585 0.433817 5.33564L0.434183 5.33559L4.71993 4.72659L4.84914 4.70823L4.90794 4.59172L6.81891 0.805667C6.81892 0.805644 6.81893 0.805621 6.81894 0.805598C6.89888 0.64746 7.10384 0.647483 7.18374 0.805667L9.0947 4.59172L9.15351 4.70823L9.28272 4.72659L13.5685 5.33559L13.5688 5.33564C13.7314 5.35849 13.8273 5.59621 13.6781 5.73821L13.6779 5.73833L10.5962 8.67483L10.4993 8.76718L10.5224 8.89903L11.2486 13.0378L11.2487 13.0379C11.2857 13.2481 11.0872 13.3572 10.9563 13.2902M0.323937 5.73842L10.9563 13.2902M3.04544 13.2906L3.04535 13.2902L6.88572 11.3162L6.99999 11.2575L7.11426 11.3162L10.9562 13.2901M3.04544 13.2906L10.9562 13.2901M10.9562 13.2901C10.9563 13.2901 10.9563 13.2902 10.9563 13.2902M10.9562 13.2901L10.9563 13.2902M9.31789 4.47907L13.6036 5.08807C13.9895 5.14232 14.1391 5.64457 13.8504 5.91932L9.31789 4.47907Z" stroke="#4F4F4F" stroke-width="0.5"/>
</svg>
