<svg width="14" height="14" viewBox="0 0 14 14" fill="none" xmlns="http://www.w3.org/2000/svg">
<mask id="path-1-inside-1_71_4342" fill="white">
<path d="M2.50776 12.9946C2.43951 13.3822 2.82276 13.6858 3.16051 13.5126L7.00001 11.5386V0.437014C6.84076 0.43748 6.68171 0.522792 6.59576 0.692949L4.68476 4.47907L0.399012 5.08807C0.0131369 5.14232 -0.136488 5.64457 0.151387 5.91932L3.23401 8.85582L2.50776 12.9946Z"/>
<path d="M9.31789 4.47907L7.40689 0.692949C7.32046 0.521857 7.16014 0.436545 7.00001 0.437014V11.5386L10.8421 13.5126C11.1799 13.6858 11.5631 13.3822 11.4949 12.9946L10.7686 8.85582L13.8504 5.91932C14.1391 5.64457 13.9895 5.14232 13.6036 5.08807L9.31789 4.47907Z"/>
</mask>
<path d="M7.25001 11.5386V0.437014H6.75001V11.5386H7.25001ZM3.16051 13.5126L3.38872 13.9575L3.38913 13.9572L3.16051 13.5126ZM2.50776 12.9946L3.00019 13.0813L3.00024 13.081L2.50776 12.9946ZM3.23401 8.85582L3.72649 8.94224L3.77277 8.67849L3.57888 8.49379L3.23401 8.85582ZM0.151387 5.91932L-0.193825 6.28103L-0.193482 6.28135L0.151387 5.91932ZM0.399012 5.08807L0.468622 5.58321L0.469355 5.5831L0.399012 5.08807ZM4.68476 4.47907L4.75511 4.9741L5.01352 4.93738L5.13113 4.70437L4.68476 4.47907ZM6.59576 0.692949L6.14947 0.467513L6.1494 0.467652L6.59576 0.692949ZM7.40689 0.692949L7.85325 0.467652L7.85318 0.467513L7.40689 0.692949ZM9.31789 4.47907L8.87152 4.70437L8.98913 4.93738L9.24754 4.9741L9.31789 4.47907ZM13.6036 5.08807L13.5333 5.5831L13.534 5.58321L13.6036 5.08807ZM13.8504 5.91932L13.5057 5.5571L13.5055 5.55734L13.8504 5.91932ZM10.7686 8.85582L10.4237 8.49384L10.2299 8.67854L10.2762 8.94224L10.7686 8.85582ZM11.4949 12.9946L11.0024 13.081L11.0025 13.0813L11.4949 12.9946ZM10.8421 13.5126L10.6136 13.9573L10.6139 13.9575L10.8421 13.5126ZM7.00001 11.5386L7.22851 11.0938L6.99993 10.9764L6.77139 11.0939L7.00001 11.5386ZM7.00001 0.437014L6.99855 -0.0629842L7.00001 0.437014ZM2.93231 13.0677C2.93394 13.0669 2.93861 13.0648 2.9459 13.0635C2.95307 13.0623 2.96056 13.0621 2.96764 13.063C2.98158 13.0647 2.98949 13.0697 2.99258 13.0721C2.99566 13.0746 2.99752 13.0772 2.99869 13.0802C3.00048 13.0847 2.99928 13.0864 3.00019 13.0813L2.01534 12.9079C1.8846 13.6504 2.63724 14.3429 3.38872 13.9575L2.93231 13.0677ZM3.00024 13.081L3.72649 8.94224L2.74154 8.76941L2.01529 12.9082L3.00024 13.081ZM3.57888 8.49379L0.496256 5.55729L-0.193482 6.28135L2.88914 9.21785L3.57888 8.49379ZM0.496599 5.55762C0.496256 5.55729 0.497376 5.55835 0.498731 5.56075C0.500004 5.56299 0.500696 5.56503 0.501005 5.56634C0.501455 5.56825 0.500818 5.56683 0.501732 5.56376C0.502664 5.56063 0.502851 5.56345 0.496566 5.56926C0.493172 5.5724 0.488424 5.57584 0.48252 5.57868C0.476447 5.5816 0.471351 5.58282 0.468622 5.58321L0.329402 4.59294C-0.50299 4.70997 -0.759925 5.74074 -0.193825 6.28103L0.496599 5.55762ZM0.469355 5.5831L4.75511 4.9741L4.61442 3.98405L0.328669 4.59305L0.469355 5.5831ZM5.13113 4.70437L7.04213 0.918246L6.1494 0.467652L4.2384 4.25378L5.13113 4.70437ZM6.96052 0.918246L8.87152 4.70437L9.76425 4.25378L7.85325 0.467652L6.96052 0.918246ZM9.24754 4.9741L13.5333 5.5831L13.674 4.59305L9.38823 3.98405L9.24754 4.9741ZM13.534 5.58321C13.5313 5.58282 13.5262 5.5816 13.5201 5.57867C13.5142 5.57583 13.5094 5.57238 13.506 5.56922C13.4997 5.56337 13.4998 5.56048 13.5007 5.56347C13.5016 5.56641 13.501 5.56769 13.5014 5.56569C13.5018 5.56433 13.5025 5.56229 13.5037 5.56006C13.5051 5.55768 13.5062 5.55669 13.5057 5.5571L14.1951 6.28155C14.7628 5.74131 14.5058 4.70999 13.6732 4.59294L13.534 5.58321ZM13.5055 5.55734L10.4237 8.49384L11.1136 9.2178L14.1953 6.28131L13.5055 5.55734ZM10.2762 8.94224L11.0024 13.081L11.9874 12.9082L11.2611 8.76941L10.2762 8.94224ZM11.0025 13.0813C11.0034 13.0864 11.0022 13.0847 11.004 13.0802C11.0051 13.0772 11.007 13.0746 11.0101 13.0721C11.0132 13.0697 11.0211 13.0647 11.035 13.063C11.0421 13.0621 11.0496 13.0623 11.0568 13.0635C11.064 13.0648 11.0687 13.0669 11.0703 13.0677L10.6139 13.9575C11.3654 14.3429 12.118 13.6504 11.9873 12.9079L11.0025 13.0813ZM11.0706 13.0678L7.22851 11.0938L6.77152 11.9833L10.6136 13.9573L11.0706 13.0678ZM6.77139 11.0939L2.93189 13.0679L3.38913 13.9572L7.22863 11.9832L6.77139 11.0939ZM7.04206 0.918385C7.04301 0.916492 7.04269 0.91768 7.04014 0.920434C7.03765 0.923136 7.03406 0.926215 7.02947 0.928995C7.02031 0.934543 7.01049 0.936985 7.00148 0.937012L6.99855 -0.0629842C6.65773 -0.0619864 6.32315 0.123675 6.14947 0.467513L7.04206 0.918385ZM7.00148 0.937012C6.99242 0.937038 6.98255 0.934632 6.97333 0.929083C6.9687 0.9263 6.96507 0.923204 6.96254 0.920476C6.95997 0.917694 6.95963 0.916484 6.96059 0.918385L7.85318 0.467513C7.6785 0.1217 7.34119 -0.0639873 6.99855 -0.0629842L7.00148 0.937012Z" fill="#4F4F4F" mask="url(#path-1-inside-1_71_4342)"/>
</svg>
